<svg width="18" height="18" viewBox="0 0 18 18" fill="none" xmlns="http://www.w3.org/2000/svg">
<path d="M9.00008 0.666992C4.40841 0.666992 0.666748 4.40866 0.666748 9.00033C0.666748 13.592 4.40841 17.3337 9.00008 17.3337C13.5917 17.3337 17.3334 13.592 17.3334 9.00033C17.3334 4.40866 13.5917 0.666992 9.00008 0.666992ZM11.8001 10.917C12.0417 11.1587 12.0417 11.5587 11.8001 11.8003C11.6751 11.9253 11.5167 11.9837 11.3584 11.9837C11.2001 11.9837 11.0417 11.9253 10.9167 11.8003L9.00008 9.88366L7.08342 11.8003C6.95842 11.9253 6.80008 11.9837 6.64175 11.9837C6.48342 11.9837 6.32508 11.9253 6.20008 11.8003C5.95842 11.5587 5.95842 11.1587 6.20008 10.917L8.11675 9.00033L6.20008 7.08366C5.95842 6.84199 5.95842 6.44199 6.20008 6.20033C6.44175 5.95866 6.84175 5.95866 7.08342 6.20033L9.00008 8.11699L10.9167 6.20033C11.1584 5.95866 11.5584 5.95866 11.8001 6.20033C12.0417 6.44199 12.0417 6.84199 11.8001 7.08366L9.88342 9.00033L11.8001 10.917Z" fill="#BFBFCF"/>
</svg>
