<svg width="20" height="20" viewBox="0 0 20 20" fill="none" xmlns="http://www.w3.org/2000/svg">
<path d="M0 10C0 4.47715 4.47715 0 10 0C15.5228 0 20 4.47715 20 10C20 15.5228 15.5228 20 10 20C4.47715 20 0 15.5228 0 10Z" fill="#0077B5"/>
<path fill-rule="evenodd" clip-rule="evenodd" d="M7.21623 6.17612C7.21623 6.82992 6.7241 7.35306 5.93391 7.35306H5.91943C5.15861 7.35306 4.66675 6.82992 4.66675 6.17612C4.66675 5.5085 5.17359 5 5.94884 5C6.7241 5 7.20152 5.5085 7.21623 6.17612ZM7.06697 8.28244V15.0915H4.80076V8.28244H7.06697ZM15.2397 15.0915L15.2398 11.1874C15.2398 9.09594 14.1218 8.12255 12.6306 8.12255C11.4273 8.12255 10.8886 8.78344 10.5879 9.24706V8.28262H8.32137C8.35124 8.92154 8.32137 15.0917 8.32137 15.0917H10.5879V11.2889C10.5879 11.0854 10.6026 10.8824 10.6625 10.7367C10.8263 10.3302 11.1992 9.90926 11.8253 9.90926C12.6457 9.90926 12.9736 10.5336 12.9736 11.4486V15.0915H15.2397Z" fill="white"/>
</svg>
