<svg width="20" height="20" viewBox="0 0 20 20" fill="none" xmlns="http://www.w3.org/2000/svg">
<g clip-path="url(#clip0_1603_872291)">
<path d="M10 20C15.5228 20 20 15.5228 20 10C20 4.47715 15.5228 0 10 0C4.47715 0 0 4.47715 0 10C0 15.5228 4.47715 20 10 20Z" fill="#1B9DF0"/>
<path d="M8.17011 15.2751C12.6051 15.2751 15.0301 11.6001 15.0301 8.4151C15.0301 8.3101 15.0301 8.2051 15.0251 8.1051C15.4951 7.7651 15.9051 7.3401 16.2301 6.8551C15.8001 7.0451 15.3351 7.1751 14.8451 7.2351C15.3451 6.9351 15.7251 6.4651 15.9051 5.9001C15.4401 6.1751 14.9251 6.3751 14.3751 6.4851C13.9351 6.0151 13.3101 5.7251 12.6151 5.7251C11.2851 5.7251 10.2051 6.8051 10.2051 8.1351C10.2051 8.3251 10.2251 8.5101 10.2701 8.6851C8.26511 8.5851 6.49011 7.6251 5.30011 6.1651C5.09511 6.5201 4.97511 6.9351 4.97511 7.3751C4.97511 8.2101 5.40011 8.9501 6.05011 9.3801C5.65511 9.3701 5.28511 9.2601 4.96011 9.0801C4.96011 9.0901 4.96011 9.1001 4.96011 9.1101C4.96011 10.2801 5.79011 11.2501 6.89511 11.4751C6.69511 11.5301 6.48011 11.5601 6.26011 11.5601C6.10511 11.5601 5.95511 11.5451 5.80511 11.5151C6.11011 12.4751 7.00011 13.1701 8.05511 13.1901C7.23011 13.8351 6.19011 14.2201 5.06011 14.2201C4.86511 14.2201 4.67511 14.2101 4.48511 14.1851C5.54011 14.8751 6.81011 15.2751 8.17011 15.2751Z" fill="white"/>
</g>
<defs>
<clipPath id="clip0_1603_872291">
<rect width="20" height="20" fill="white"/>
</clipPath>
</defs>
</svg>
